<?xml version="1.0" encoding="UTF-8" standalone="no"?>
<svg
   enable-background="new 0 0 24 24"
   viewBox="0 0 24 24"
   id="archlinux"
   version="1.1"
   sodipodi:docname="archlinux-white.svg"
   inkscape:version="1.3.2 (091e20ef0f, 2023-11-25, custom)"
   xmlns:inkscape="http://www.inkscape.org/namespaces/inkscape"
   xmlns:sodipodi="http://sodipodi.sourceforge.net/DTD/sodipodi-0.dtd"
   xmlns="http://www.w3.org/2000/svg"
   xmlns:svg="http://www.w3.org/2000/svg">
  <defs
     id="defs1" />
  <sodipodi:namedview
     id="namedview1"
     pagecolor="#ffffff"
     bordercolor="#000000"
     borderopacity="0.25"
     inkscape:showpageshadow="2"
     inkscape:pageopacity="0.0"
     inkscape:pagecheckerboard="0"
     inkscape:deskcolor="#d1d1d1"
     inkscape:zoom="19.375"
     inkscape:cx="12"
     inkscape:cy="11.974194"
     inkscape:window-width="1896"
     inkscape:window-height="1031"
     inkscape:window-x="0"
     inkscape:window-y="0"
     inkscape:window-maximized="1"
     inkscape:current-layer="archlinux" />
  <path
     d="M9.321,18.304l0.003-0.121c0.061-2.437,1.328-4.312,2.83-4.184c1.502,0.126,2.669,2.207,2.61,4.643c-0.012,0.459-0.063,0.9-0.154,1.309c2.718,0.532,5.637,1.882,9.389,4.048c-0.739-1.362-1.4-2.59-2.032-3.759c-0.994-0.77-2.03-1.773-4.142-2.857c1.452,0.378,2.493,0.812,3.303,1.3C14.714,6.746,14.196,5.159,11.997,0c-1.069,2.618-1.712,4.33-2.901,6.872c0.73,0.774,1.625,1.673,3.079,2.69c-1.563-0.643-2.629-1.289-3.426-1.958C7.227,10.78,4.841,15.304,0,24c3.805-2.196,6.754-3.549,9.502-4.067C9.384,19.426,9.316,18.876,9.321,18.304z"
     id="path1"
     inkscape:label="path1"
     style="fill:#ffffff" />
  <polygon
     points="11.39 1.002 11.39 1.002 11.391 1"
     id="polygon1" />
</svg>
