<?xml version="1.0" encoding="UTF-8" standalone="no"?>
<!-- Uploaded to: SVG Repo, www.svgrepo.com, Generator: SVG Repo Mixer Tools -->

<svg
   fill="#000000"
   width="800px"
   height="800px"
   viewBox="0 0 512 512"
   version="1.1"
   id="svg4"
   sodipodi:docname="battery-050-charging.svg"
   inkscape:version="1.4 (e7c3feb100, 2024-10-09)"
   xmlns:inkscape="http://www.inkscape.org/namespaces/inkscape"
   xmlns:sodipodi="http://sodipodi.sourceforge.net/DTD/sodipodi-0.dtd"
   xmlns="http://www.w3.org/2000/svg"
   xmlns:svg="http://www.w3.org/2000/svg"
   xmlns:rdf="http://www.w3.org/1999/02/22-rdf-syntax-ns#"
   xmlns:cc="http://creativecommons.org/ns#"
   xmlns:dc="http://purl.org/dc/elements/1.1/">
  <defs
     id="defs4" />
  <sodipodi:namedview
     id="namedview4"
     pagecolor="#7f7f7f"
     bordercolor="#000000"
     borderopacity="0.25"
     inkscape:showpageshadow="2"
     inkscape:pageopacity="0.0"
     inkscape:pagecheckerboard="0"
     inkscape:deskcolor="#d1d1d1"
     inkscape:zoom="0.9675"
     inkscape:cx="400"
     inkscape:cy="399.4832"
     inkscape:window-width="1920"
     inkscape:window-height="1080"
     inkscape:window-x="0"
     inkscape:window-y="0"
     inkscape:window-maximized="0"
     inkscape:current-layer="svg4" />
  <title
     id="title1">ionicons-v5-d</title>
  <path
     d="M306.68,237.62h-66.5l15.33-54.7L261.94,160,265.88,146l4.29-15.33h0a3.56,3.56,0,0,0,.06-.44c0-.06,0-.12,0-.19a1.85,1.85,0,0,0,0-.23,2,2,0,0,0,0-.24l0-.14c0-.1-.07-.19-.11-.29l0-.05a2.33,2.33,0,0,0-2-1.35h-.1a2.25,2.25,0,0,0-1.8,1h0l-12.5,17.15L234.9,171.44l-8.36,11.48-35.41,48.6L160,274.26h66.44l-30,107a3.93,3.93,0,0,0-.06.48s0,.06,0,.1a1.94,1.94,0,0,0,0,.34.29.29,0,0,0,0,.09,3,3,0,0,0,.07.32l0,.06a1.83,1.83,0,0,0,.14.32v0a2.38,2.38,0,0,0,1.52,1.16l.11,0,.33,0h.13a2.1,2.1,0,0,0,1.31-.5l.06-.05a2.6,2.6,0,0,0,.42-.45h0L223.3,352l13-17.82Z"
     id="path1"
     style="fill:#ffffff" />
  <path
     d="M289.78,134.55l-.14.74-.21.73-6.72,24H417V352H248.05l-23.33,32H449V128H290.13A22.62,22.62,0,0,1,289.78,134.55Z"
     id="path2"
     style="fill:#ffffff" />
  <path
     d="M49,160H218.49l23.31-32H17V384H176.49a22.73,22.73,0,0,1,.34-6.67l.15-.75.2-.73L183.87,352H49Z"
     id="path3"
     style="fill:#ffffff" />
  <polygon
     points="160 294.26 120.69 294.26 143.84 262.48 201.79 182.92 70.69 182.92 70.69 329.08 190.29 329.08 200.06 294.26 160 294.26"
     id="polygon4"
     style="fill:#ffffff" />
  <rect
     x="465"
     y="202.67"
     width="32"
     height="106.67"
     id="rect4"
     style="fill:#ffffff" />
  <metadata
     id="metadata4">
    <rdf:RDF>
      <cc:Work
         rdf:about="">
        <dc:title>ionicons-v5-d</dc:title>
      </cc:Work>
    </rdf:RDF>
  </metadata>
</svg>
