<?xml version="1.0" encoding="UTF-8" standalone="no"?>
<!-- Uploaded to: SVG Repo, www.svgrepo.com, Generator: SVG Repo Mixer Tools -->

<svg
   fill="#000000"
   version="1.1"
   id="Layer_1"
   viewBox="0 0 512 512"
   xml:space="preserve"
   sodipodi:docname="clock-wall-clock-svgrepo-com--white.svg"
   inkscape:version="1.4 (e7c3feb100, 2024-10-09)"
   xmlns:inkscape="http://www.inkscape.org/namespaces/inkscape"
   xmlns:sodipodi="http://sodipodi.sourceforge.net/DTD/sodipodi-0.dtd"
   xmlns="http://www.w3.org/2000/svg"
   xmlns:svg="http://www.w3.org/2000/svg"><defs
   id="defs36" /><sodipodi:namedview
   id="namedview36"
   pagecolor="#ffffff"
   bordercolor="#000000"
   borderopacity="0.25"
   inkscape:showpageshadow="2"
   inkscape:pageopacity="0.0"
   inkscape:pagecheckerboard="0"
   inkscape:deskcolor="#d1d1d1"
   inkscape:zoom="1.5117188"
   inkscape:cx="256"
   inkscape:cy="255.66925"
   inkscape:window-width="1920"
   inkscape:window-height="1080"
   inkscape:window-x="0"
   inkscape:window-y="0"
   inkscape:window-maximized="0"
   inkscape:current-layer="Layer_1" />
<g
   id="g2"
   style="fill:#ffffff">
	<g
   id="g1"
   style="fill:#ffffff">
		<path
   d="M437.019,74.98C388.667,26.628,324.38,0,256,0S123.333,26.628,74.98,74.98C26.628,123.333,0,187.619,0,256    c0,68.381,26.628,132.668,74.98,181.02C123.333,485.372,187.619,512,256,512c68.381,0,132.668-26.628,181.02-74.98    S512,324.381,512,256S485.371,123.333,437.019,74.98z M415.511,415.511c-42.606,42.606-99.255,66.072-159.511,66.072    c-60.255,0-116.904-23.465-159.511-66.072C53.883,372.903,30.417,316.255,30.417,256S53.882,139.096,96.489,96.489    C139.097,53.883,195.745,30.417,256,30.417s116.904,23.465,159.511,66.072c42.606,42.607,66.072,99.255,66.072,159.511    S458.117,372.904,415.511,415.511z"
   id="path1"
   style="fill:#ffffff" />
	</g>
</g>
<g
   id="g4"
   style="fill:#ffffff">
	<g
   id="g3"
   style="fill:#ffffff">
		<rect
   x="240.792"
   y="44.713"
   width="30.417"
   height="58.249"
   id="rect2"
   style="fill:#ffffff" />
	</g>
</g>
<g
   id="g6"
   style="fill:#ffffff">
	<g
   id="g5"
   style="fill:#ffffff">
		<rect
   x="240.792"
   y="409.04"
   width="30.417"
   height="58.249"
   id="rect4"
   style="fill:#ffffff" />
	</g>
</g>
<g
   id="g8"
   style="fill:#ffffff">
	<g
   id="g7"
   style="fill:#ffffff">
		
			<rect
   x="167.205"
   y="59.352"
   transform="matrix(0.9239 -0.3827 0.3827 0.9239 -16.0921 75.7709)"
   width="30.418"
   height="37.967"
   id="rect6"
   style="fill:#ffffff" />
	</g>
</g>
<g
   id="g10"
   style="fill:#ffffff">
	<g
   id="g9"
   style="fill:#ffffff">
		
			<rect
   x="314.387"
   y="414.671"
   transform="matrix(0.9239 -0.3827 0.3827 0.9239 -140.8658 159.1448)"
   width="30.418"
   height="37.967"
   id="rect8"
   style="fill:#ffffff" />
	</g>
</g>
<g
   id="g12"
   style="fill:#ffffff">
	<g
   id="g11"
   style="fill:#ffffff">
		
			<rect
   x="310.611"
   y="63.133"
   transform="matrix(0.3827 -0.9239 0.9239 0.3827 131.0838 352.8654)"
   width="37.967"
   height="30.418"
   id="rect10"
   style="fill:#ffffff" />
	</g>
</g>
<g
   id="g14"
   style="fill:#ffffff">
	<g
   id="g13"
   style="fill:#ffffff">
		
			<rect
   x="163.429"
   y="418.444"
   transform="matrix(0.3827 -0.9239 0.9239 0.3827 -288.0371 436.2248)"
   width="37.967"
   height="30.418"
   id="rect12"
   style="fill:#ffffff" />
	</g>
</g>
<g
   id="g16"
   style="fill:#ffffff">
	<g
   id="g15"
   style="fill:#ffffff">
		
			<rect
   x="414.67"
   y="167.203"
   transform="matrix(0.9239 -0.3827 0.3827 0.9239 -36.7963 179.8406)"
   width="37.967"
   height="30.418"
   id="rect14"
   style="fill:#ffffff" />
	</g>
</g>
<g
   id="g18"
   style="fill:#ffffff">
	<g
   id="g17"
   style="fill:#ffffff">
		
			<rect
   x="59.358"
   y="314.385"
   transform="matrix(0.9239 -0.3827 0.3827 0.9239 -120.1688 55.0703)"
   width="37.967"
   height="30.418"
   id="rect16"
   style="fill:#ffffff" />
	</g>
</g>
<g
   id="g20"
   style="fill:#ffffff">
	<g
   id="g19"
   style="fill:#ffffff">
		
			<rect
   x="418.45"
   y="310.595"
   transform="matrix(0.3827 -0.9239 0.9239 0.3827 -36.7884 604.0989)"
   width="30.418"
   height="37.967"
   id="rect18"
   style="fill:#ffffff" />
	</g>
</g>
<g
   id="g22"
   style="fill:#ffffff">
	<g
   id="g21"
   style="fill:#ffffff">
		
			<rect
   x="63.127"
   y="163.435"
   transform="matrix(0.3827 -0.9239 0.9239 0.3827 -120.1744 184.9807)"
   width="30.418"
   height="37.967"
   id="rect20"
   style="fill:#ffffff" />
	</g>
</g>
<g
   id="g24"
   style="fill:#ffffff">
	<g
   id="g23"
   style="fill:#ffffff">
		
			<rect
   x="111.993"
   y="98.071"
   transform="matrix(0.7071 -0.7071 0.7071 0.7071 -52.6805 127.1982)"
   width="30.417"
   height="58.238"
   id="rect22"
   style="fill:#ffffff" />
	</g>
</g>
<g
   id="g26"
   style="fill:#ffffff">
	<g
   id="g25"
   style="fill:#ffffff">
		
			<rect
   x="369.599"
   y="355.697"
   transform="matrix(0.7071 -0.7071 0.7071 0.7071 -159.3988 384.8102)"
   width="30.417"
   height="58.238"
   id="rect24"
   style="fill:#ffffff" />
	</g>
</g>
<g
   id="g28"
   style="fill:#ffffff">
	<g
   id="g27"
   style="fill:#ffffff">
		<rect
   x="44.713"
   y="240.792"
   width="58.249"
   height="30.417"
   id="rect26"
   style="fill:#ffffff" />
	</g>
</g>
<g
   id="g30"
   style="fill:#ffffff">
	<g
   id="g29"
   style="fill:#ffffff">
		<rect
   x="409.04"
   y="240.792"
   width="58.249"
   height="30.417"
   id="rect28"
   style="fill:#ffffff" />
	</g>
</g>
<g
   id="g32"
   style="fill:#ffffff">
	<g
   id="g31"
   style="fill:#ffffff">
		
			<rect
   x="98.065"
   y="369.608"
   transform="matrix(0.7071 -0.7071 0.7071 0.7071 -234.8547 202.6427)"
   width="58.238"
   height="30.417"
   id="rect30"
   style="fill:#ffffff" />
	</g>
</g>
<g
   id="g34"
   style="fill:#ffffff">
	<g
   id="g33"
   style="fill:#ffffff">
		
			<rect
   x="355.696"
   y="111.97"
   transform="matrix(0.7071 -0.7071 0.7071 0.7071 22.7808 309.3548)"
   width="58.238"
   height="30.417"
   id="rect32"
   style="fill:#ffffff" />
	</g>
</g>
<g
   id="g36"
   style="fill:#ffffff">
	<g
   id="g35"
   style="fill:#ffffff">
		<path
   d="M363.048,210.531l-24.159,18.482l9.012,11.781h-58.202c-3.708-8.183-10.306-14.782-18.49-18.49v-58.202l11.781,9.012    l18.482-24.159l-45.47-34.782l-45.47,34.782l18.482,24.159l11.781-9.012v58.202c-12.826,5.812-21.776,18.726-21.776,33.698    c0,20.393,16.591,36.984,36.984,36.984c14.973,0,27.886-8.949,33.698-21.776h58.199l-9.01,11.779l24.159,18.482l34.782-45.47    L363.048,210.531z M256,262.566c-3.621,0-6.567-2.945-6.567-6.567c0-3.622,2.945-6.567,6.567-6.567    c3.622,0,6.567,2.945,6.567,6.567C262.567,259.621,259.621,262.566,256,262.566z"
   id="path34"
   style="fill:#ffffff" />
	</g>
</g>
</svg>
