<?xml version="1.0" encoding="UTF-8" standalone="no"?>
<svg
   height="24px"
   viewBox="0 -960 960 960"
   width="24px"
   fill="#e8eaed"
   version="1.1"
   id="svg1"
   sodipodi:docname="battery_minus.svg"
   inkscape:version="1.3.2 (091e20ef0f, 2023-11-25, custom)"
   xmlns:inkscape="http://www.inkscape.org/namespaces/inkscape"
   xmlns:sodipodi="http://sodipodi.sourceforge.net/DTD/sodipodi-0.dtd"
   xmlns="http://www.w3.org/2000/svg"
   xmlns:svg="http://www.w3.org/2000/svg">
  <defs
     id="defs1" />
  <sodipodi:namedview
     id="namedview1"
     pagecolor="#ffffff"
     bordercolor="#000000"
     borderopacity="0.25"
     inkscape:showpageshadow="2"
     inkscape:pageopacity="0.0"
     inkscape:pagecheckerboard="0"
     inkscape:deskcolor="#d1d1d1"
     showguides="true"
     inkscape:zoom="19.375"
     inkscape:cx="8.5935484"
     inkscape:cy="15.432258"
     inkscape:window-width="1896"
     inkscape:window-height="1031"
     inkscape:window-x="0"
     inkscape:window-y="0"
     inkscape:window-maximized="1"
     inkscape:current-layer="svg1" />
  <path
     d="m 320,-80 c -11.33333,0 -20.83333,-3.833333 -28.5,-11.5 -7.66667,-7.666667 -11.5,-17.16667 -11.5,-28.5 v -640 c 0,-11.33333 3.83333,-20.83333 11.5,-28.5 7.66667,-7.66667 17.16667,-11.5 28.5,-11.5 h 80 v -80 h 160 v 80 h 80 c 11.33333,0 20.83333,3.83333 28.5,11.5 7.66667,7.66667 11.5,17.16667 11.5,28.5 v 376.26728 c -14,0 -27.66667,1.16667 -41,3.5 -13.33333,2.33333 -26.33333,5.83333 -39,10.5 V -720 H 360 v 560 h 94 c 5.33333,15.33333 11.83333,29.66667 19.5,43 7.66667,13.33333 16.83333,25.666667 27.5,37 z m 200,-120 v -80 h 320 v 80 z"
     id="path1"
     sodipodi:nodetypes="ssssssccccssscscccccscsccccc" />
</svg>
